<mxfile host="drawio-plugin" modified="2021-04-19T13:24:45.911Z" agent="5.0 (Macintosh; Intel Mac OS X 10_15_7) AppleWebKit/537.36 (KHTML, like Gecko) Chrome/87.0.4280.141 Safari/537.36" etag="eH6rweA4CnQQYUu4DNjF" version="13.7.9" type="embed"><diagram name="cloud-infra" id="ENdlkrQ4ESV_3y_0gFBF"><mxGraphModel dx="1963" dy="1456" grid="0" gridSize="10" guides="1" tooltips="1" connect="1" arrows="1" fold="1" page="0" pageScale="1" pageWidth="1654" pageHeight="1169" math="0" shadow="0"><root><mxCell id="MVo3yfntmlOVNE5W4VQp-0"/><mxCell id="MVo3yfntmlOVNE5W4VQp-1" parent="MVo3yfntmlOVNE5W4VQp-0"/><mxCell id="Kh9-0N-7bFlfN1xy298b-8" value="Service Implementation [API GW, Lambda, ...]" style="whiteSpace=wrap;html=1;fillColor=none;verticalAlign=top;dashed=1;align=left;strokeWidth=2;spacingLeft=5;fontStyle=1;strokeColor=#67AB9F;" parent="MVo3yfntmlOVNE5W4VQp-1" vertex="1"><mxGeometry x="268" y="141" width="300" height="168" as="geometry"/></mxCell><mxCell id="tMC2uhvTvj6uQLeXqsD0-34" value="File Upload&amp;nbsp;&lt;br&gt;[API GW, Lambda, S3]" style="whiteSpace=wrap;html=1;fillColor=none;verticalAlign=bottom;dashed=1;align=right;strokeWidth=2;spacingLeft=5;fontStyle=1;strokeColor=#67AB9F;spacingRight=5;spacingBottom=5;" parent="MVo3yfntmlOVNE5W4VQp-1" vertex="1"><mxGeometry x="455.25" y="-104" width="305" height="235.75" as="geometry"/></mxCell><mxCell id="tMC2uhvTvj6uQLeXqsD0-36" value="Application level&lt;br&gt;Security Components" style="whiteSpace=wrap;html=1;fillColor=none;verticalAlign=top;dashed=1;align=right;strokeWidth=2;spacingLeft=5;fontStyle=1;strokeColor=#67AB9F;spacingRight=5;" parent="MVo3yfntmlOVNE5W4VQp-1" vertex="1"><mxGeometry x="119" y="320" width="603" height="94" as="geometry"/></mxCell><mxCell id="tMC2uhvTvj6uQLeXqsD0-33" value="Circuit Breaker &lt;br&gt;[API GW, Lambda, S3]" style="whiteSpace=wrap;html=1;fillColor=none;verticalAlign=top;dashed=1;align=left;strokeWidth=2;spacingLeft=5;fontStyle=1;strokeColor=#67AB9F;" parent="MVo3yfntmlOVNE5W4VQp-1" vertex="1"><mxGeometry x="-194" y="4.31" width="448" height="74.69" as="geometry"/></mxCell><mxCell id="tMC2uhvTvj6uQLeXqsD0-32" value="Submission &amp;amp; Query [API GW, Lambda, S3]" style="whiteSpace=wrap;html=1;fillColor=none;verticalAlign=top;dashed=1;align=left;strokeWidth=2;spacingLeft=5;fontStyle=1;strokeColor=#67AB9F;" parent="MVo3yfntmlOVNE5W4VQp-1" vertex="1"><mxGeometry x="-197" y="-233" width="434" height="230" as="geometry"/></mxCell><mxCell id="hmCnU27NQRr-MFfCl9dL-1" value="DistributeAPI [CDN, S3]" style="whiteSpace=wrap;html=1;fillColor=none;verticalAlign=top;dashed=1;align=left;strokeWidth=2;spacingLeft=5;fontStyle=1;strokeColor=#67AB9F;" parent="MVo3yfntmlOVNE5W4VQp-1" vertex="1"><mxGeometry x="-190" y="87.38" width="435" height="213.62" as="geometry"/></mxCell><mxCell id="MVo3yfntmlOVNE5W4VQp-6" value="APIs, Services and Storage Components&lt;br style=&quot;font-size: 13px;&quot;&gt;[Cloud-Native AWS]" style="rounded=0;whiteSpace=wrap;html=1;verticalAlign=top;align=right;fillColor=none;spacingLeft=5;fontSize=13;fontStyle=1;spacingRight=9;" parent="MVo3yfntmlOVNE5W4VQp-1" vertex="1"><mxGeometry x="1" y="-238" width="607" height="644" as="geometry"/></mxCell><mxCell id="MVo3yfntmlOVNE5W4VQp-3" value="" style="endArrow=classic;html=1;fontSize=11;fontColor=#000000;exitX=1;exitY=0.5;exitDx=0;exitDy=0;entryX=0;entryY=0.25;entryDx=0;entryDy=0;edgeStyle=orthogonalEdgeStyle;rounded=0;" parent="MVo3yfntmlOVNE5W4VQp-1" source="MVo3yfntmlOVNE5W4VQp-75" target="MVo3yfntmlOVNE5W4VQp-11" edge="1"><mxGeometry width="50" height="50" relative="1" as="geometry"><mxPoint x="-487.09000000000003" y="-26.625" as="sourcePoint"/><mxPoint x="-346" y="-58" as="targetPoint"/></mxGeometry></mxCell><mxCell id="MVo3yfntmlOVNE5W4VQp-4" value="" style="endArrow=classic;html=1;fontSize=11;fontColor=#000000;exitX=1;exitY=0.5;exitDx=0;exitDy=0;entryX=0;entryY=0.25;entryDx=0;entryDy=0;edgeStyle=orthogonalEdgeStyle;rounded=0;" parent="MVo3yfntmlOVNE5W4VQp-1" source="MVo3yfntmlOVNE5W4VQp-7" target="MVo3yfntmlOVNE5W4VQp-11" edge="1"><mxGeometry width="50" height="50" relative="1" as="geometry"><mxPoint x="-158.34000000000003" y="307" as="sourcePoint"/><mxPoint x="-108.34000000000003" y="257" as="targetPoint"/></mxGeometry></mxCell><mxCell id="MVo3yfntmlOVNE5W4VQp-5" value="" style="endArrow=none;dashed=1;html=1;strokeWidth=3;strokeColor=#B3B3B3;" parent="MVo3yfntmlOVNE5W4VQp-1" edge="1"><mxGeometry width="50" height="50" relative="1" as="geometry"><mxPoint x="-314" y="645" as="sourcePoint"/><mxPoint x="-313.65999999999997" y="-319" as="targetPoint"/></mxGeometry></mxCell><mxCell id="MVo3yfntmlOVNE5W4VQp-7" value="&lt;span&gt;Mobile App&lt;/span&gt;&lt;br&gt;[iOS]" style="whiteSpace=wrap;html=1;aspect=fixed;fillColor=#b0e3e6;strokeColor=#0e8088;fontStyle=0" parent="MVo3yfntmlOVNE5W4VQp-1" vertex="1"><mxGeometry x="-495" y="-159" width="59" height="59" as="geometry"/></mxCell><mxCell id="MVo3yfntmlOVNE5W4VQp-8" value="" style="outlineConnect=0;dashed=0;verticalLabelPosition=bottom;verticalAlign=top;align=center;html=1;shape=mxgraph.aws3.mobile_client;fillColor=#4D4D4D;gradientColor=none;strokeColor=none;" parent="MVo3yfntmlOVNE5W4VQp-1" vertex="1"><mxGeometry x="-526" y="-173" width="20" height="33" as="geometry"/></mxCell><mxCell id="tMC2uhvTvj6uQLeXqsD0-15" style="edgeStyle=orthogonalEdgeStyle;rounded=0;orthogonalLoop=1;jettySize=auto;html=1;" parent="MVo3yfntmlOVNE5W4VQp-1" source="MVo3yfntmlOVNE5W4VQp-9" edge="1"><mxGeometry relative="1" as="geometry"><mxPoint x="1" y="145.4388235294117" as="targetPoint"/></mxGeometry></mxCell><mxCell id="MVo3yfntmlOVNE5W4VQp-9" value="&lt;span&gt;&lt;span&gt;CDN&lt;/span&gt;&lt;br&gt;&lt;/span&gt;(w/ DDoS)&lt;br&gt;&lt;span&gt;[CloudFront]&lt;br&gt;&lt;/span&gt;" style="whiteSpace=wrap;html=1;fontColor=#000000;strokeColor=#0e8088;fontStyle=0;fillColor=#b0e3e6;" parent="MVo3yfntmlOVNE5W4VQp-1" vertex="1"><mxGeometry x="-168" y="130.38" width="129" height="148" as="geometry"/></mxCell><mxCell id="MVo3yfntmlOVNE5W4VQp-11" value="&lt;span&gt;&lt;span&gt;DNS&lt;/span&gt;&lt;/span&gt;&lt;br&gt;&lt;span&gt;[Route53]&lt;/span&gt;" style="whiteSpace=wrap;html=1;fontColor=#000000;strokeColor=#0e8088;fontStyle=0;fillColor=#b0e3e6;" parent="MVo3yfntmlOVNE5W4VQp-1" vertex="1"><mxGeometry x="-345" y="-182" width="70" height="450" as="geometry"/></mxCell><mxCell id="MVo3yfntmlOVNE5W4VQp-15" value="&lt;span&gt;SecretsManager&lt;/span&gt;&lt;br&gt;[AWS SecretsManager]" style="whiteSpace=wrap;html=1;fontColor=#000000;strokeColor=#0e8088;fontStyle=0;fillColor=#b0e3e6;" parent="MVo3yfntmlOVNE5W4VQp-1" vertex="1"><mxGeometry x="126" y="330" width="99" height="63" as="geometry"/></mxCell><mxCell id="MVo3yfntmlOVNE5W4VQp-16" value="&lt;span&gt;OperationsAlert&lt;/span&gt;&lt;br&gt;[SNS/&lt;br&gt;JiraServiceDesk/&lt;br&gt;Slack]" style="whiteSpace=wrap;html=1;strokeColor=#0e8088;fontColor=#000000;fontStyle=0;fillColor=#b0e3e6;" parent="MVo3yfntmlOVNE5W4VQp-1" vertex="1"><mxGeometry x="-251" y="353" width="150" height="67" as="geometry"/></mxCell><mxCell id="MVo3yfntmlOVNE5W4VQp-18" value="&lt;span&gt;PermissionManagement&lt;/span&gt;&lt;br&gt;[IAM]" style="whiteSpace=wrap;html=1;fillColor=#b0e3e6;strokeColor=#0e8088;fontStyle=0" parent="MVo3yfntmlOVNE5W4VQp-1" vertex="1"><mxGeometry x="-143" y="510" width="824" height="40" as="geometry"/></mxCell><mxCell id="MVo3yfntmlOVNE5W4VQp-19" value="&lt;span&gt;Logging, Monitoring and Alerting&lt;/span&gt; &lt;br&gt;[CloudTrail, Cloud Watch]" style="whiteSpace=wrap;html=1;strokeColor=#0e8088;fillColor=#b0e3e6;fontStyle=0" parent="MVo3yfntmlOVNE5W4VQp-1" vertex="1"><mxGeometry x="-251" y="446" width="1054" height="40" as="geometry"/></mxCell><mxCell id="MVo3yfntmlOVNE5W4VQp-20" value="&lt;span&gt;SecurityAudit&lt;/span&gt;&lt;br&gt;[IAM Access Analyzer, Trusted Advisor]" style="whiteSpace=wrap;html=1;strokeColor=#0e8088;fontStyle=0;fillColor=#b0e3e6;" parent="MVo3yfntmlOVNE5W4VQp-1" vertex="1"><mxGeometry x="-143" y="562" width="363.67" height="40" as="geometry"/></mxCell><mxCell id="MVo3yfntmlOVNE5W4VQp-21" value="&lt;span&gt;InfrastructureAudit&lt;/span&gt;&lt;br&gt;[CloudTrail]" style="whiteSpace=wrap;html=1;strokeColor=#0e8088;fillColor=#b0e3e6;fontStyle=0" parent="MVo3yfntmlOVNE5W4VQp-1" vertex="1"><mxGeometry x="236.67000000000004" y="562" width="445" height="40" as="geometry"/></mxCell><mxCell id="MVo3yfntmlOVNE5W4VQp-24" value="" style="endArrow=classic;html=1;fontSize=11;fontColor=#000000;exitX=1;exitY=0.25;exitDx=0;exitDy=0;entryX=0;entryY=0.25;entryDx=0;entryDy=0;rounded=0;edgeStyle=orthogonalEdgeStyle;" parent="MVo3yfntmlOVNE5W4VQp-1" source="MVo3yfntmlOVNE5W4VQp-11" edge="1"><mxGeometry width="50" height="50" relative="1" as="geometry"><mxPoint x="-378.84000000000003" y="-73" as="sourcePoint"/><mxPoint x="-169" y="-130.50000000000023" as="targetPoint"/></mxGeometry></mxCell><mxCell id="MVo3yfntmlOVNE5W4VQp-25" value="" style="endArrow=classic;html=1;fontSize=11;fontColor=#000000;exitX=1;exitY=0.25;exitDx=0;exitDy=0;entryX=0;entryY=0.5;entryDx=0;entryDy=0;rounded=0;edgeStyle=orthogonalEdgeStyle;" parent="MVo3yfntmlOVNE5W4VQp-1" source="MVo3yfntmlOVNE5W4VQp-11" target="MVo3yfntmlOVNE5W4VQp-9" edge="1"><mxGeometry width="50" height="50" relative="1" as="geometry"><mxPoint x="-247.34000000000003" y="-126.5" as="sourcePoint"/><mxPoint x="-212.34000000000003" y="-25" as="targetPoint"/></mxGeometry></mxCell><mxCell id="MVo3yfntmlOVNE5W4VQp-44" value="Web Clients" style="text;html=1;strokeColor=none;fillColor=none;align=left;verticalAlign=middle;whiteSpace=wrap;rounded=0;fontSize=20;fontColor=#B3B3B3;" parent="MVo3yfntmlOVNE5W4VQp-1" vertex="1"><mxGeometry x="-572" y="98.13000000000005" width="180" height="20" as="geometry"/></mxCell><mxCell id="MVo3yfntmlOVNE5W4VQp-55" value="" style="endArrow=none;dashed=1;html=1;strokeWidth=3;strokeColor=#B3B3B3;" parent="MVo3yfntmlOVNE5W4VQp-1" source="BgJXhwI06i4OPGI81IDf-9" edge="1"><mxGeometry width="50" height="50" relative="1" as="geometry"><mxPoint x="825" y="210" as="sourcePoint"/><mxPoint x="837" y="-314" as="targetPoint"/></mxGeometry></mxCell><mxCell id="MVo3yfntmlOVNE5W4VQp-75" value="&lt;span&gt;Mobile App&lt;/span&gt;&lt;br&gt;[Android]" style="whiteSpace=wrap;html=1;aspect=fixed;fillColor=#b0e3e6;strokeColor=#0e8088;fontStyle=0" parent="MVo3yfntmlOVNE5W4VQp-1" vertex="1"><mxGeometry x="-496" y="-91" width="60" height="60" as="geometry"/></mxCell><mxCell id="MVo3yfntmlOVNE5W4VQp-77" value="AWS Cloud-Native Infrastructure for Applications and Operations&amp;nbsp;" style="text;html=1;strokeColor=none;fillColor=none;align=center;verticalAlign=middle;whiteSpace=wrap;rounded=0;fontSize=27;fontColor=#B3B3B3;" parent="MVo3yfntmlOVNE5W4VQp-1" vertex="1"><mxGeometry x="-244" y="-309" width="883" height="20" as="geometry"/></mxCell><mxCell id="MVo3yfntmlOVNE5W4VQp-78" value="External Systems" style="text;html=1;strokeColor=none;fillColor=none;align=left;verticalAlign=middle;whiteSpace=wrap;rounded=0;fontSize=27;fontColor=#B3B3B3;" parent="MVo3yfntmlOVNE5W4VQp-1" vertex="1"><mxGeometry x="866" y="-304" width="350" height="20" as="geometry"/></mxCell><mxCell id="kikoet3qnLkE-YZudz2Q-0" style="edgeStyle=orthogonalEdgeStyle;rounded=0;orthogonalLoop=1;jettySize=auto;html=1;entryX=0;entryY=0.75;entryDx=0;entryDy=0;" parent="MVo3yfntmlOVNE5W4VQp-1" source="MVo3yfntmlOVNE5W4VQp-79" target="MVo3yfntmlOVNE5W4VQp-11" edge="1"><mxGeometry relative="1" as="geometry"/></mxCell><mxCell id="MVo3yfntmlOVNE5W4VQp-79" value="Control Panel Dashboard&amp;nbsp;&lt;br&gt;[SPA]" style="whiteSpace=wrap;html=1;fontColor=#000000;strokeColor=#0e8088;fillColor=#b0e3e6;fontStyle=0" parent="MVo3yfntmlOVNE5W4VQp-1" vertex="1"><mxGeometry x="-479" y="195" width="91" height="73" as="geometry"/></mxCell><mxCell id="tMC2uhvTvj6uQLeXqsD0-7" style="edgeStyle=orthogonalEdgeStyle;rounded=0;orthogonalLoop=1;jettySize=auto;html=1;entryX=1;entryY=0.5;entryDx=0;entryDy=0;" parent="MVo3yfntmlOVNE5W4VQp-1" source="BgJXhwI06i4OPGI81IDf-9" target="Z00eDHKt7jFzdqVRIVsM-0" edge="1"><mxGeometry relative="1" as="geometry"/></mxCell><mxCell id="BgJXhwI06i4OPGI81IDf-9" value="&lt;span&gt;DNS&lt;/span&gt;&lt;br&gt;[Route53]" style="whiteSpace=wrap;html=1;fontColor=#000000;strokeColor=#0e8088;fontStyle=0;fillColor=#b0e3e6;" parent="MVo3yfntmlOVNE5W4VQp-1" vertex="1"><mxGeometry x="796" y="-115" width="70" height="468" as="geometry"/></mxCell><mxCell id="BgJXhwI06i4OPGI81IDf-10" value="" style="endArrow=none;dashed=1;html=1;strokeWidth=3;strokeColor=#B3B3B3;" parent="MVo3yfntmlOVNE5W4VQp-1" target="BgJXhwI06i4OPGI81IDf-9" edge="1"><mxGeometry width="50" height="50" relative="1" as="geometry"><mxPoint x="831" y="638" as="sourcePoint"/><mxPoint x="825" y="-246.8800000000001" as="targetPoint"/></mxGeometry></mxCell><mxCell id="zo6Md4-j8iSAbyj3G2PH-3" value="DiagnosisKeys&lt;br&gt;[S3]" style="shape=cylinder;whiteSpace=wrap;html=1;boundedLbl=1;backgroundOutline=1;strokeColor=#0e8088;fillColor=#b0e3e6;" parent="MVo3yfntmlOVNE5W4VQp-1" vertex="1"><mxGeometry x="133" y="-104" width="92" height="39.88" as="geometry"/></mxCell><mxCell id="zo6Md4-j8iSAbyj3G2PH-5" value="Signed&lt;br&gt;DiagnosisKeys&lt;br&gt;[S3]" style="shape=cylinder;whiteSpace=wrap;html=1;boundedLbl=1;backgroundOutline=1;strokeColor=#0e8088;fillColor=#b0e3e6;" parent="MVo3yfntmlOVNE5W4VQp-1" vertex="1"><mxGeometry x="31" y="124.88" width="88" height="47" as="geometry"/></mxCell><mxCell id="EUmktEVQddVm6W4oNG56-5" value="&lt;span&gt;BatchCreation&lt;/span&gt;&lt;br&gt;[Lambda]" style="whiteSpace=wrap;html=1;fillColor=#b0e3e6;strokeColor=#0e8088;fontStyle=0" parent="MVo3yfntmlOVNE5W4VQp-1" vertex="1"><mxGeometry x="254" y="-114" width="91" height="45" as="geometry"/></mxCell><mxCell id="hnLhc47LqwuUl5LtveDi-0" value="" style="rounded=0;whiteSpace=wrap;html=1;strokeColor=#999999;align=left;fillColor=none;strokeWidth=1;" parent="MVo3yfntmlOVNE5W4VQp-1" vertex="1"><mxGeometry x="1274" y="292" width="233" height="321.4" as="geometry"/></mxCell><mxCell id="hnLhc47LqwuUl5LtveDi-1" value="" style="endArrow=classic;html=1;fontSize=20;fontColor=#B3B3B3;" parent="MVo3yfntmlOVNE5W4VQp-1" edge="1"><mxGeometry width="50" height="50" relative="1" as="geometry"><mxPoint x="1284.5" y="320" as="sourcePoint"/><mxPoint x="1382.5" y="320" as="targetPoint"/></mxGeometry></mxCell><mxCell id="hnLhc47LqwuUl5LtveDi-2" value="dependency" style="edgeLabel;html=1;align=center;verticalAlign=middle;resizable=0;points=[];" parent="hnLhc47LqwuUl5LtveDi-1" vertex="1" connectable="0"><mxGeometry x="-0.8068" y="3" relative="1" as="geometry"><mxPoint x="39" y="-7" as="offset"/></mxGeometry></mxCell><mxCell id="hnLhc47LqwuUl5LtveDi-3" value="Keys" style="text;html=1;strokeColor=none;fillColor=none;align=left;verticalAlign=middle;whiteSpace=wrap;rounded=0;fontSize=20;fontColor=#000000;" parent="MVo3yfntmlOVNE5W4VQp-1" vertex="1"><mxGeometry x="1269" y="258" width="190" height="20" as="geometry"/></mxCell><mxCell id="hnLhc47LqwuUl5LtveDi-4" value="Component&lt;br&gt;[Technology]" style="whiteSpace=wrap;html=1;" parent="MVo3yfntmlOVNE5W4VQp-1" vertex="1"><mxGeometry x="1285.5" y="340" width="100" height="43" as="geometry"/></mxCell><mxCell id="hnLhc47LqwuUl5LtveDi-5" value="Organisation" style="whiteSpace=wrap;html=1;rounded=0;strokeColor=#23445d;fillColor=#bac8d3;" parent="MVo3yfntmlOVNE5W4VQp-1" vertex="1"><mxGeometry x="1289" y="552.0000000000001" width="104" height="43" as="geometry"/></mxCell><mxCell id="hnLhc47LqwuUl5LtveDi-8" value="App System&lt;br&gt;V3" style="whiteSpace=wrap;html=1;fillColor=#b0e3e6;strokeColor=#0e8088;" parent="MVo3yfntmlOVNE5W4VQp-1" vertex="1"><mxGeometry x="1290.75" y="484.4" width="57.5" height="43" as="geometry"/></mxCell><mxCell id="hnLhc47LqwuUl5LtveDi-10" value="Storage&lt;br&gt;[Technology]" style="shape=cylinder;whiteSpace=wrap;html=1;boundedLbl=1;backgroundOutline=1;strokeColor=#000000;fillColor=#ffffff;" parent="MVo3yfntmlOVNE5W4VQp-1" vertex="1"><mxGeometry x="1286.5" y="399.4" width="89" height="51" as="geometry"/></mxCell><mxCell id="hmCnU27NQRr-MFfCl9dL-0" value="AnalyticsAPI&lt;br&gt;[API GW]" style="whiteSpace=wrap;html=1;fontColor=#000000;strokeColor=#0e8088;fillColor=#b0e3e6;" parent="MVo3yfntmlOVNE5W4VQp-1" vertex="1"><mxGeometry x="13" y="-56" width="110" height="40" as="geometry"/></mxCell><mxCell id="hmCnU27NQRr-MFfCl9dL-2" value="RiskVenue&lt;br&gt;CircuitBreaker&lt;br&gt;[API GW]" style="whiteSpace=wrap;html=1;strokeColor=#0e8088;fillColor=#b0e3e6;" parent="MVo3yfntmlOVNE5W4VQp-1" vertex="1"><mxGeometry x="144" y="15.999999999999993" width="98" height="49" as="geometry"/></mxCell><mxCell id="hmCnU27NQRr-MFfCl9dL-3" value="SubmitAPI&lt;br&gt;[API GW]" style="whiteSpace=wrap;html=1;fontColor=#000000;strokeColor=#0e8088;fillColor=#b0e3e6;" parent="MVo3yfntmlOVNE5W4VQp-1" vertex="1"><mxGeometry x="12" y="-106.12" width="110" height="40" as="geometry"/></mxCell><mxCell id="hmCnU27NQRr-MFfCl9dL-4" value="VirologyTestingAPI&lt;br&gt;[API GW]" style="whiteSpace=wrap;html=1;strokeColor=#0e8088;fillColor=#b0e3e6;" parent="MVo3yfntmlOVNE5W4VQp-1" vertex="1"><mxGeometry x="13" y="-153" width="110" height="40" as="geometry"/></mxCell><mxCell id="hmCnU27NQRr-MFfCl9dL-6" value="TestLabAPI&lt;br&gt;[API GW]" style="whiteSpace=wrap;html=1;strokeColor=#0e8088;fillColor=#b0e3e6;" parent="MVo3yfntmlOVNE5W4VQp-1" vertex="1"><mxGeometry x="472.25" y="79.03" width="100" height="40" as="geometry"/></mxCell><mxCell id="hmCnU27NQRr-MFfCl9dL-7" value="PostalDistrictAPI&lt;br&gt;[API GW]" style="whiteSpace=wrap;html=1;strokeColor=#0e8088;fillColor=#b0e3e6;" parent="MVo3yfntmlOVNE5W4VQp-1" vertex="1"><mxGeometry x="474.25" y="-35.25" width="96" height="40" as="geometry"/></mxCell><mxCell id="hmCnU27NQRr-MFfCl9dL-9" value="VenueAPI&lt;br&gt;[API GW]" style="whiteSpace=wrap;html=1;strokeColor=#0e8088;fillColor=#b0e3e6;" parent="MVo3yfntmlOVNE5W4VQp-1" vertex="1"><mxGeometry x="472.25" y="13.819999999999993" width="100" height="40" as="geometry"/></mxCell><mxCell id="rsw8MhWaKnIKUzOS8xKP-0" value="&lt;span&gt;Virology Test Labs&lt;br&gt;&lt;/span&gt;" style="whiteSpace=wrap;html=1;strokeColor=#000000;fontColor=#000000;fontStyle=0;dashed=1;verticalAlign=top;" parent="MVo3yfntmlOVNE5W4VQp-1" vertex="1"><mxGeometry x="948.5" y="324" width="233" height="110" as="geometry"/></mxCell><mxCell id="rsw8MhWaKnIKUzOS8xKP-1" value="Data for High-risk &lt;br&gt;Postal Districts" style="whiteSpace=wrap;html=1;strokeColor=#0e8088;fontStyle=0;fillColor=#b0e3e6;" parent="MVo3yfntmlOVNE5W4VQp-1" vertex="1"><mxGeometry x="942.84" y="-35" width="114.18" height="46.88" as="geometry"/></mxCell><mxCell id="rsw8MhWaKnIKUzOS8xKP-3" style="edgeStyle=none;rounded=0;orthogonalLoop=1;jettySize=auto;html=1;exitX=0.5;exitY=1;exitDx=0;exitDy=0;entryX=0.5;entryY=0;entryDx=0;entryDy=0;" parent="MVo3yfntmlOVNE5W4VQp-1" source="rsw8MhWaKnIKUzOS8xKP-4" target="rsw8MhWaKnIKUzOS8xKP-0" edge="1"><mxGeometry relative="1" as="geometry"/></mxCell><mxCell id="rsw8MhWaKnIKUzOS8xKP-4" value="&lt;span&gt;Virology Request Websites&lt;br&gt;&lt;/span&gt;" style="whiteSpace=wrap;html=1;strokeColor=#000000;fontColor=#000000;fontStyle=0;dashed=1;verticalAlign=top;" parent="MVo3yfntmlOVNE5W4VQp-1" vertex="1"><mxGeometry x="945" y="161" width="240" height="120" as="geometry"/></mxCell><mxCell id="rsw8MhWaKnIKUzOS8xKP-5" style="rounded=0;orthogonalLoop=1;jettySize=auto;html=1;entryX=0;entryY=0.5;entryDx=0;entryDy=0;" parent="MVo3yfntmlOVNE5W4VQp-1" source="rsw8MhWaKnIKUzOS8xKP-9" target="rsw8MhWaKnIKUzOS8xKP-10" edge="1"><mxGeometry relative="1" as="geometry"/></mxCell><mxCell id="rsw8MhWaKnIKUzOS8xKP-7" style="edgeStyle=none;rounded=0;orthogonalLoop=1;jettySize=auto;html=1;entryX=1;entryY=0.5;entryDx=0;entryDy=0;" parent="MVo3yfntmlOVNE5W4VQp-1" source="rsw8MhWaKnIKUzOS8xKP-9" target="rsw8MhWaKnIKUzOS8xKP-11" edge="1"><mxGeometry relative="1" as="geometry"><mxPoint x="985.52" y="120.19" as="targetPoint"/></mxGeometry></mxCell><mxCell id="rsw8MhWaKnIKUzOS8xKP-9" value="&lt;span&gt;QR Code &lt;br&gt;Poster Generator&lt;br&gt;[SPA (Rush)]&lt;br&gt;&lt;/span&gt;" style="whiteSpace=wrap;html=1;strokeColor=#0e8088;fontStyle=0;fillColor=#b0e3e6;" parent="MVo3yfntmlOVNE5W4VQp-1" vertex="1"><mxGeometry x="1087.52" y="53.81" width="115" height="50" as="geometry"/></mxCell><mxCell id="rsw8MhWaKnIKUzOS8xKP-10" value="UK Postcodes&lt;br&gt;[IdealPostcode]" style="whiteSpace=wrap;html=1;strokeColor=#0e8088;fontStyle=0;fillColor=#b0e3e6;" parent="MVo3yfntmlOVNE5W4VQp-1" vertex="1"><mxGeometry x="1221.52" y="56.31" width="97" height="50" as="geometry"/></mxCell><mxCell id="tMC2uhvTvj6uQLeXqsD0-8" style="edgeStyle=orthogonalEdgeStyle;rounded=0;orthogonalLoop=1;jettySize=auto;html=1;" parent="MVo3yfntmlOVNE5W4VQp-1" source="rsw8MhWaKnIKUzOS8xKP-11" target="BgJXhwI06i4OPGI81IDf-9" edge="1"><mxGeometry relative="1" as="geometry"><Array as="points"><mxPoint x="894" y="79"/><mxPoint x="894" y="119"/></Array></mxGeometry></mxCell><mxCell id="rsw8MhWaKnIKUzOS8xKP-11" value="&lt;span&gt;RiskVenues&lt;br&gt;[SPA (Rush)]&lt;br&gt;&lt;/span&gt;" style="whiteSpace=wrap;html=1;fontStyle=0;fillColor=#b0e3e6;strokeColor=#0e8088;" parent="MVo3yfntmlOVNE5W4VQp-1" vertex="1"><mxGeometry x="942.34" y="53.809999999999995" width="115" height="50" as="geometry"/></mxCell><mxCell id="rsw8MhWaKnIKUzOS8xKP-12" value="App Analytics Environment AAE" style="whiteSpace=wrap;html=1;strokeColor=#0e8088;fontStyle=0;fillColor=#b0e3e6;" parent="MVo3yfntmlOVNE5W4VQp-1" vertex="1"><mxGeometry x="941" y="-271" width="119" height="44" as="geometry"/></mxCell><mxCell id="rsw8MhWaKnIKUzOS8xKP-13" value="Data for Questionnaire and Advice" style="whiteSpace=wrap;html=1;strokeColor=#0e8088;fontStyle=0;fillColor=#b0e3e6;" parent="MVo3yfntmlOVNE5W4VQp-1" vertex="1"><mxGeometry x="941" y="-99.88" width="116.02" height="46.88" as="geometry"/></mxCell><mxCell id="tMC2uhvTvj6uQLeXqsD0-9" style="edgeStyle=orthogonalEdgeStyle;rounded=0;orthogonalLoop=1;jettySize=auto;html=1;entryX=1;entryY=0.75;entryDx=0;entryDy=0;" parent="MVo3yfntmlOVNE5W4VQp-1" source="rsw8MhWaKnIKUzOS8xKP-14" target="BgJXhwI06i4OPGI81IDf-9" edge="1"><mxGeometry relative="1" as="geometry"><Array as="points"><mxPoint x="907" y="385"/><mxPoint x="907" y="236"/></Array></mxGeometry></mxCell><mxCell id="rsw8MhWaKnIKUzOS8xKP-14" value="England Test Database&lt;br&gt;[NPEx]" style="whiteSpace=wrap;html=1;strokeColor=#0e8088;fontStyle=0;fillColor=#b0e3e6;" parent="MVo3yfntmlOVNE5W4VQp-1" vertex="1"><mxGeometry x="969.83" y="360" width="83.34" height="50" as="geometry"/></mxCell><mxCell id="rsw8MhWaKnIKUzOS8xKP-15" value="Welsh Testing System&lt;br&gt;[]" style="whiteSpace=wrap;html=1;strokeColor=#000000;fontColor=#000000;fontStyle=0" parent="MVo3yfntmlOVNE5W4VQp-1" vertex="1"><mxGeometry x="1073.8200000000002" y="360" width="83.34" height="50" as="geometry"/></mxCell><mxCell id="rsw8MhWaKnIKUzOS8xKP-16" value="England Virology Website&lt;br&gt;[Deloitte]" style="whiteSpace=wrap;html=1;strokeColor=#0e8088;fontStyle=0;fillColor=#b0e3e6;" parent="MVo3yfntmlOVNE5W4VQp-1" vertex="1"><mxGeometry x="971.33" y="198.28000000000003" width="83.34" height="69.94" as="geometry"/></mxCell><mxCell id="rsw8MhWaKnIKUzOS8xKP-17" value="UKG booking platform (Wales)&lt;br&gt;[]" style="whiteSpace=wrap;html=1;strokeColor=#000000;fontColor=#000000;fontStyle=0" parent="MVo3yfntmlOVNE5W4VQp-1" vertex="1"><mxGeometry x="1075.3200000000002" y="198.28000000000003" width="83.34" height="70.94" as="geometry"/></mxCell><mxCell id="rsw8MhWaKnIKUzOS8xKP-19" value="External System Admins" style="pointerEvents=1;shadow=0;dashed=0;html=1;strokeColor=none;labelPosition=center;verticalLabelPosition=bottom;verticalAlign=top;align=center;fillColor=#505050;shape=mxgraph.mscae.intune.user_group" parent="MVo3yfntmlOVNE5W4VQp-1" vertex="1"><mxGeometry x="935" y="544.3000000000001" width="50" height="37" as="geometry"/></mxCell><mxCell id="rsw8MhWaKnIKUzOS8xKP-23" value="App System Admins" style="pointerEvents=1;shadow=0;dashed=0;html=1;strokeColor=none;labelPosition=center;verticalLabelPosition=bottom;verticalAlign=top;align=center;fillColor=#505050;shape=mxgraph.mscae.intune.user_group" parent="MVo3yfntmlOVNE5W4VQp-1" vertex="1"><mxGeometry x="-514" y="355.18" width="50" height="37" as="geometry"/></mxCell><mxCell id="rsw8MhWaKnIKUzOS8xKP-24" value="" style="endArrow=none;dashed=1;html=1;strokeWidth=3;strokeColor=#B3B3B3;" parent="MVo3yfntmlOVNE5W4VQp-1" edge="1"><mxGeometry width="50" height="50" relative="1" as="geometry"><mxPoint x="-342.5" y="1.7763568394002505e-15" as="sourcePoint"/><mxPoint x="-641.5" y="1.7763568394002505e-15" as="targetPoint"/></mxGeometry></mxCell><mxCell id="rsw8MhWaKnIKUzOS8xKP-25" value="Public Clients" style="text;html=1;strokeColor=none;fillColor=none;align=left;verticalAlign=middle;whiteSpace=wrap;rounded=0;fontSize=27;fontColor=#B3B3B3;" parent="MVo3yfntmlOVNE5W4VQp-1" vertex="1"><mxGeometry x="-597" y="-312" width="180" height="20" as="geometry"/></mxCell><mxCell id="rsw8MhWaKnIKUzOS8xKP-26" value="Operations" style="text;html=1;strokeColor=none;fillColor=none;align=left;verticalAlign=middle;whiteSpace=wrap;rounded=0;fontSize=27;fontColor=#B3B3B3;" parent="MVo3yfntmlOVNE5W4VQp-1" vertex="1"><mxGeometry x="-592" y="41" width="180" height="20" as="geometry"/></mxCell><mxCell id="rsw8MhWaKnIKUzOS8xKP-27" value="" style="pointerEvents=1;dashed=0;html=1;strokeColor=none;fillColor=#4D4D4D;labelPosition=center;verticalLabelPosition=bottom;verticalAlign=top;outlineConnect=0;align=center;shape=mxgraph.office.devices.laptop;fontColor=#000000;gradientColor=none;" parent="MVo3yfntmlOVNE5W4VQp-1" vertex="1"><mxGeometry x="-554" y="327.82" width="40" height="30" as="geometry"/></mxCell><mxCell id="rsw8MhWaKnIKUzOS8xKP-28" value="&lt;span&gt;Ops&amp;amp;Infra&lt;br&gt;Dashboards&lt;br&gt;[AWS]&lt;/span&gt;" style="whiteSpace=wrap;html=1;fontColor=#000000;strokeColor=#0e8088;fillColor=#b0e3e6;fontStyle=0" parent="MVo3yfntmlOVNE5W4VQp-1" vertex="1"><mxGeometry x="-441" y="307" width="79" height="80" as="geometry"/></mxCell><mxCell id="rsw8MhWaKnIKUzOS8xKP-29" value="App System &lt;br&gt;Operators" style="pointerEvents=1;shadow=0;dashed=0;html=1;strokeColor=none;labelPosition=center;verticalLabelPosition=bottom;verticalAlign=top;align=center;fillColor=#505050;shape=mxgraph.mscae.intune.user_group" parent="MVo3yfntmlOVNE5W4VQp-1" vertex="1"><mxGeometry x="-549.5" y="213" width="50" height="37" as="geometry"/></mxCell><mxCell id="rsw8MhWaKnIKUzOS8xKP-31" value="" style="outlineConnect=0;dashed=0;verticalLabelPosition=bottom;verticalAlign=top;align=center;html=1;shape=mxgraph.aws3.mobile_client;fillColor=#4D4D4D;gradientColor=none;strokeColor=none;" parent="MVo3yfntmlOVNE5W4VQp-1" vertex="1"><mxGeometry x="-526" y="-95" width="20" height="33" as="geometry"/></mxCell><mxCell id="tMC2uhvTvj6uQLeXqsD0-0" value="&lt;span&gt;BatchSigning&lt;/span&gt;&lt;br&gt;[KMS]" style="whiteSpace=wrap;html=1;fontColor=#000000;strokeColor=#0e8088;fontStyle=0;fillColor=#b0e3e6;" parent="MVo3yfntmlOVNE5W4VQp-1" vertex="1"><mxGeometry x="231.5" y="330" width="89" height="63" as="geometry"/></mxCell><mxCell id="tMC2uhvTvj6uQLeXqsD0-1" value="&lt;span&gt;APIKeyGenerator&lt;/span&gt;&lt;br&gt;[OpenSSL]" style="whiteSpace=wrap;html=1;fontColor=#000000;strokeColor=#0e8088;fontStyle=0;fillColor=#b0e3e6;" parent="MVo3yfntmlOVNE5W4VQp-1" vertex="1"><mxGeometry x="328" y="330" width="122" height="63" as="geometry"/></mxCell><mxCell id="tMC2uhvTvj6uQLeXqsD0-2" value="&lt;span&gt;PublicKeyGenerator&lt;/span&gt;&lt;br&gt;[GPG]" style="whiteSpace=wrap;html=1;fontColor=#000000;strokeColor=#0e8088;fontStyle=0;fillColor=#b0e3e6;" parent="MVo3yfntmlOVNE5W4VQp-1" vertex="1"><mxGeometry x="461" y="328.5" width="122" height="63" as="geometry"/></mxCell><mxCell id="tMC2uhvTvj6uQLeXqsD0-3" value="&lt;span&gt;PublicKeyGenerator&lt;/span&gt;&lt;br&gt;[GPG]" style="whiteSpace=wrap;html=1;fontColor=#000000;strokeColor=#0e8088;fontStyle=0;fillColor=#b0e3e6;" parent="MVo3yfntmlOVNE5W4VQp-1" vertex="1"><mxGeometry x="1046" y="544.3000000000001" width="122" height="50" as="geometry"/></mxCell><mxCell id="tMC2uhvTvj6uQLeXqsD0-5" value="&lt;span&gt;WAF&lt;br&gt;&lt;/span&gt;[CloudFront]" style="whiteSpace=wrap;html=1;fillColor=#b0e3e6;strokeColor=#0e8088;fontStyle=0" parent="MVo3yfntmlOVNE5W4VQp-1" vertex="1"><mxGeometry x="647.25" y="-100.25" width="95" height="82" as="geometry"/></mxCell><mxCell id="tMC2uhvTvj6uQLeXqsD0-6" value="" style="endArrow=classic;html=1;fontSize=11;fontColor=#000000;exitX=0;exitY=0.5;exitDx=0;exitDy=0;edgeStyle=orthogonalEdgeStyle;rounded=0;" parent="MVo3yfntmlOVNE5W4VQp-1" source="tMC2uhvTvj6uQLeXqsD0-5" edge="1"><mxGeometry width="50" height="50" relative="1" as="geometry"><mxPoint x="652.25" y="-141.75" as="sourcePoint"/><mxPoint x="606" y="-59" as="targetPoint"/></mxGeometry></mxCell><mxCell id="tMC2uhvTvj6uQLeXqsD0-10" value="ExposureConfig&lt;br&gt;[S3]" style="shape=cylinder;whiteSpace=wrap;html=1;boundedLbl=1;backgroundOutline=1;strokeColor=#0e8088;fillColor=#b0e3e6;" parent="MVo3yfntmlOVNE5W4VQp-1" vertex="1"><mxGeometry x="137" y="124.88" width="88" height="47" as="geometry"/></mxCell><mxCell id="tMC2uhvTvj6uQLeXqsD0-11" value="RiskVenue&lt;br&gt;[S3]" style="shape=cylinder;whiteSpace=wrap;html=1;boundedLbl=1;backgroundOutline=1;strokeColor=#0e8088;fillColor=#b0e3e6;" parent="MVo3yfntmlOVNE5W4VQp-1" vertex="1"><mxGeometry x="137" y="187.38" width="88" height="47" as="geometry"/></mxCell><mxCell id="tMC2uhvTvj6uQLeXqsD0-12" value="Isolation&lt;br&gt;Configuration&lt;br&gt;[S3]" style="shape=cylinder;whiteSpace=wrap;html=1;boundedLbl=1;backgroundOutline=1;strokeColor=#0e8088;fillColor=#b0e3e6;" parent="MVo3yfntmlOVNE5W4VQp-1" vertex="1"><mxGeometry x="140" y="238.51" width="88" height="47" as="geometry"/></mxCell><mxCell id="tMC2uhvTvj6uQLeXqsD0-13" value="High-Risk PostalDistrict&lt;br&gt;[S3]" style="shape=cylinder;whiteSpace=wrap;html=1;boundedLbl=1;backgroundOutline=1;strokeColor=#0e8088;fillColor=#b0e3e6;" parent="MVo3yfntmlOVNE5W4VQp-1" vertex="1"><mxGeometry x="31" y="185.38" width="88" height="47" as="geometry"/></mxCell><mxCell id="tMC2uhvTvj6uQLeXqsD0-14" value="Symptoms&lt;br&gt;[S3]" style="shape=cylinder;whiteSpace=wrap;html=1;boundedLbl=1;backgroundOutline=1;strokeColor=#0e8088;fillColor=#b0e3e6;" parent="MVo3yfntmlOVNE5W4VQp-1" vertex="1"><mxGeometry x="31" y="241.38" width="88" height="47" as="geometry"/></mxCell><mxCell id="tMC2uhvTvj6uQLeXqsD0-17" value="ExposureNotification&lt;br&gt;CircuitBreaker&lt;br&gt;[API GW]" style="whiteSpace=wrap;html=1;strokeColor=#0e8088;fillColor=#b0e3e6;" parent="MVo3yfntmlOVNE5W4VQp-1" vertex="1"><mxGeometry x="17" y="16.159999999999993" width="118" height="51" as="geometry"/></mxCell><mxCell id="tMC2uhvTvj6uQLeXqsD0-18" value="Analytics Data&lt;br&gt;[S3]" style="shape=cylinder;whiteSpace=wrap;html=1;boundedLbl=1;backgroundOutline=1;strokeColor=#0e8088;fillColor=#b0e3e6;" parent="MVo3yfntmlOVNE5W4VQp-1" vertex="1"><mxGeometry x="133" y="-53" width="90" height="41" as="geometry"/></mxCell><mxCell id="tMC2uhvTvj6uQLeXqsD0-21" value="TestResults&lt;br&gt;[DynamoDB]" style="shape=cylinder;whiteSpace=wrap;html=1;boundedLbl=1;backgroundOutline=1;strokeColor=#0e8088;fillColor=#b0e3e6;" parent="MVo3yfntmlOVNE5W4VQp-1" vertex="1"><mxGeometry x="350" y="75.5" width="92" height="47.06" as="geometry"/></mxCell><mxCell id="tMC2uhvTvj6uQLeXqsD0-22" value="*ServiceConfig&lt;br&gt;[Terraform]" style="shape=cylinder;whiteSpace=wrap;html=1;boundedLbl=1;backgroundOutline=1;fontStyle=2;dashed=1;strokeColor=#67AB9F;strokeWidth=2;" parent="MVo3yfntmlOVNE5W4VQp-1" vertex="1"><mxGeometry x="454" y="169.88" width="87" height="46.75" as="geometry"/></mxCell><mxCell id="tMC2uhvTvj6uQLeXqsD0-23" value="&lt;span&gt;AnalyticsQuery&lt;/span&gt;&lt;br&gt;[Athena]" style="whiteSpace=wrap;html=1;fillColor=#b0e3e6;strokeColor=#0e8088;fontStyle=0" parent="MVo3yfntmlOVNE5W4VQp-1" vertex="1"><mxGeometry x="254" y="-53" width="91" height="42" as="geometry"/></mxCell><mxCell id="tMC2uhvTvj6uQLeXqsD0-24" value="Aggregated&lt;br&gt;Data&lt;br&gt;[S3]" style="shape=cylinder;whiteSpace=wrap;html=1;boundedLbl=1;backgroundOutline=1;strokeColor=#0e8088;fillColor=#b0e3e6;" parent="MVo3yfntmlOVNE5W4VQp-1" vertex="1"><mxGeometry x="268" y="2" width="74.25" height="49.5" as="geometry"/></mxCell><mxCell id="tMC2uhvTvj6uQLeXqsD0-25" value="&lt;span&gt;*Service&lt;/span&gt;&lt;br&gt;[Lambda]" style="whiteSpace=wrap;html=1;fontStyle=2;dashed=1;strokeColor=#67AB9F;strokeWidth=2;" parent="MVo3yfntmlOVNE5W4VQp-1" vertex="1"><mxGeometry x="361.5" y="170.75" width="75" height="45" as="geometry"/></mxCell><mxCell id="tMC2uhvTvj6uQLeXqsD0-26" value="*ServiceData&lt;br&gt;[S3]" style="shape=cylinder;whiteSpace=wrap;html=1;boundedLbl=1;backgroundOutline=1;fontStyle=2;dashed=1;strokeColor=#67AB9F;strokeWidth=2;" parent="MVo3yfntmlOVNE5W4VQp-1" vertex="1"><mxGeometry x="454" y="225" width="89" height="42.01" as="geometry"/></mxCell><mxCell id="tMC2uhvTvj6uQLeXqsD0-27" value="App System V4" style="whiteSpace=wrap;html=1;" parent="MVo3yfntmlOVNE5W4VQp-1" vertex="1"><mxGeometry x="1368" y="484.4" width="57.5" height="43" as="geometry"/></mxCell><mxCell id="tMC2uhvTvj6uQLeXqsD0-28" value="User" style="pointerEvents=1;shadow=0;dashed=0;html=1;strokeColor=none;labelPosition=center;verticalLabelPosition=bottom;verticalAlign=top;align=center;fillColor=#505050;shape=mxgraph.mscae.intune.user_group" parent="MVo3yfntmlOVNE5W4VQp-1" vertex="1"><mxGeometry x="-602" y="-136.5" width="50" height="37" as="geometry"/></mxCell><mxCell id="tMC2uhvTvj6uQLeXqsD0-29" value="Boundary" style="endArrow=none;dashed=1;html=1;strokeWidth=3;strokeColor=#B3B3B3;" parent="MVo3yfntmlOVNE5W4VQp-1" edge="1"><mxGeometry width="50" height="50" relative="1" as="geometry"><mxPoint x="1441" y="383" as="sourcePoint"/><mxPoint x="1441.3602086791557" y="307.6" as="targetPoint"/></mxGeometry></mxCell><mxCell id="tMC2uhvTvj6uQLeXqsD0-30" value="&lt;span&gt;Group&lt;br&gt;&lt;/span&gt;" style="whiteSpace=wrap;html=1;strokeColor=#000000;fontColor=#000000;fontStyle=0;dashed=1;verticalAlign=top;" parent="MVo3yfntmlOVNE5W4VQp-1" vertex="1"><mxGeometry x="1402.5" y="552.4" width="81.5" height="42.6" as="geometry"/></mxCell><mxCell id="tMC2uhvTvj6uQLeXqsD0-31" value="Architectural&lt;br&gt;Pattern&lt;br&gt;[Technologies]" style="whiteSpace=wrap;html=1;fillColor=none;verticalAlign=top;dashed=1;align=center;strokeWidth=2;spacingLeft=5;fontStyle=0;strokeColor=#67AB9F;" parent="MVo3yfntmlOVNE5W4VQp-1" vertex="1"><mxGeometry x="1397" y="402.4" width="90" height="62" as="geometry"/></mxCell><mxCell id="r-n-9bjzUeOkxrQMaEF2-0" value="&lt;span&gt;*API&lt;/span&gt;&lt;br&gt;[API GW]" style="whiteSpace=wrap;html=1;fontStyle=2;dashed=1;strokeColor=#67AB9F;strokeWidth=2;" parent="MVo3yfntmlOVNE5W4VQp-1" vertex="1"><mxGeometry x="278.5" y="170.75" width="75" height="46.25" as="geometry"/></mxCell><mxCell id="r-n-9bjzUeOkxrQMaEF2-1" value="&lt;span&gt;*Signing&lt;/span&gt;&lt;br&gt;[KMS]" style="whiteSpace=wrap;html=1;fontStyle=2;dashed=1;strokeColor=#67AB9F;strokeWidth=2;" parent="MVo3yfntmlOVNE5W4VQp-1" vertex="1"><mxGeometry x="361.5" y="223.51" width="75" height="45" as="geometry"/></mxCell><mxCell id="Kh9-0N-7bFlfN1xy298b-0" value="&lt;span&gt;ConfigStore&lt;br&gt;[AWS ParameterStore]&lt;br&gt;&lt;/span&gt;" style="whiteSpace=wrap;html=1;strokeColor=#0e8088;fontStyle=0;fillColor=#b0e3e6;" parent="MVo3yfntmlOVNE5W4VQp-1" vertex="1"><mxGeometry x="12" y="330" width="92" height="63" as="geometry"/></mxCell><mxCell id="Kh9-0N-7bFlfN1xy298b-9" value="time triggered &lt;br&gt;jobs" style="shadow=0;dashed=0;html=1;strokeColor=#23445d;fillColor=#bac8d3;labelPosition=center;verticalLabelPosition=bottom;verticalAlign=top;align=center;outlineConnect=0;shape=mxgraph.veeam.time;" parent="MVo3yfntmlOVNE5W4VQp-1" vertex="1"><mxGeometry x="285.5" y="-186" width="29" height="28.8" as="geometry"/></mxCell><mxCell id="Kh9-0N-7bFlfN1xy298b-10" value="retention &lt;br&gt;policies" style="shadow=0;dashed=0;html=1;strokeColor=#23445d;fillColor=#bac8d3;labelPosition=center;verticalLabelPosition=bottom;verticalAlign=top;align=center;outlineConnect=0;shape=mxgraph.veeam.time;" parent="MVo3yfntmlOVNE5W4VQp-1" vertex="1"><mxGeometry x="299.5" y="225" width="29" height="28.8" as="geometry"/></mxCell><mxCell id="Kh9-0N-7bFlfN1xy298b-14" value="TBC" style="text;html=1;strokeColor=#ae4132;fillColor=#fad9d5;align=center;verticalAlign=middle;whiteSpace=wrap;rounded=0;fontSize=12;" parent="MVo3yfntmlOVNE5W4VQp-1" vertex="1"><mxGeometry x="1444" y="481.4" width="40" height="46" as="geometry"/></mxCell><mxCell id="Kh9-0N-7bFlfN1xy298b-15" value="IsolationPaymentAPI&lt;br&gt;(Mobile-facing)&lt;br&gt;[API GW]" style="whiteSpace=wrap;html=1;strokeColor=#0e8088;fillColor=#b0e3e6;" parent="MVo3yfntmlOVNE5W4VQp-1" vertex="1"><mxGeometry x="13" y="-199" width="110" height="40" as="geometry"/></mxCell><mxCell id="Kh9-0N-7bFlfN1xy298b-16" value="&lt;font style=&quot;font-size: 12px&quot;&gt;Isolation Payment Tokens&lt;/font&gt;&lt;br&gt;[DynamoDB]" style="shape=cylinder;whiteSpace=wrap;html=1;boundedLbl=1;backgroundOutline=1;strokeColor=#0e8088;fillColor=#b0e3e6;" parent="MVo3yfntmlOVNE5W4VQp-1" vertex="1"><mxGeometry x="350" y="19.120000000000005" width="92" height="41.88" as="geometry"/></mxCell><mxCell id="Kh9-0N-7bFlfN1xy298b-17" value="" style="endArrow=none;dashed=1;html=1;strokeWidth=3;strokeColor=#B3B3B3;" parent="MVo3yfntmlOVNE5W4VQp-1" edge="1"><mxGeometry width="50" height="50" relative="1" as="geometry"><mxPoint x="-316" y="452.53" as="sourcePoint"/><mxPoint x="-615" y="452.53" as="targetPoint"/></mxGeometry></mxCell><mxCell id="Kh9-0N-7bFlfN1xy298b-18" value="CDOC" style="text;html=1;strokeColor=none;fillColor=none;align=left;verticalAlign=middle;whiteSpace=wrap;rounded=0;fontSize=27;fontColor=#B3B3B3;" parent="MVo3yfntmlOVNE5W4VQp-1" vertex="1"><mxGeometry x="-579" y="480.5" width="180" height="20" as="geometry"/></mxCell><mxCell id="Kh9-0N-7bFlfN1xy298b-19" value="Onboarded and integrated wit App System Operations" style="whiteSpace=wrap;html=1;fontColor=#000000;strokeColor=#000000;fontStyle=0;" parent="MVo3yfntmlOVNE5W4VQp-1" vertex="1"><mxGeometry x="-457" y="500.5" width="95" height="73.47" as="geometry"/></mxCell><mxCell id="Kh9-0N-7bFlfN1xy298b-20" value="CDOC Team" style="pointerEvents=1;shadow=0;dashed=0;html=1;strokeColor=none;labelPosition=center;verticalLabelPosition=bottom;verticalAlign=top;align=center;fillColor=#505050;shape=mxgraph.mscae.intune.user_group" parent="MVo3yfntmlOVNE5W4VQp-1" vertex="1"><mxGeometry x="-567" y="530" width="50" height="37" as="geometry"/></mxCell><mxCell id="Kh9-0N-7bFlfN1xy298b-21" value="" style="endArrow=none;dashed=1;html=1;strokeWidth=3;strokeColor=#B3B3B3;" parent="MVo3yfntmlOVNE5W4VQp-1" edge="1"><mxGeometry width="50" height="50" relative="1" as="geometry"><mxPoint x="1206" y="473" as="sourcePoint"/><mxPoint x="830" y="472.52999999999975" as="targetPoint"/></mxGeometry></mxCell><mxCell id="rsw8MhWaKnIKUzOS8xKP-22" value="External System User" style="pointerEvents=1;shadow=0;dashed=0;html=1;strokeColor=none;labelPosition=center;verticalLabelPosition=bottom;verticalAlign=top;align=center;fillColor=#505050;shape=mxgraph.mscae.intune.user_group" parent="MVo3yfntmlOVNE5W4VQp-1" vertex="1"><mxGeometry x="1262" y="141" width="50" height="37" as="geometry"/></mxCell><mxCell id="Kh9-0N-7bFlfN1xy298b-23" value="Ext Sys Admin" style="text;html=1;strokeColor=none;fillColor=none;align=left;verticalAlign=middle;whiteSpace=wrap;rounded=0;fontSize=27;fontColor=#B3B3B3;" parent="MVo3yfntmlOVNE5W4VQp-1" vertex="1"><mxGeometry x="877.3399999999999" y="495.53" width="180" height="20" as="geometry"/></mxCell><mxCell id="Z00eDHKt7jFzdqVRIVsM-1" style="edgeStyle=orthogonalEdgeStyle;rounded=0;orthogonalLoop=1;jettySize=auto;html=1;" parent="MVo3yfntmlOVNE5W4VQp-1" source="Z00eDHKt7jFzdqVRIVsM-0" target="tMC2uhvTvj6uQLeXqsD0-5" edge="1"><mxGeometry relative="1" as="geometry"/></mxCell><mxCell id="Z00eDHKt7jFzdqVRIVsM-0" value="&lt;span&gt;APIFacade&lt;br&gt;(w/ DDoS)&lt;br&gt;&lt;/span&gt;&lt;span&gt;[CloudFront]&lt;br&gt;&lt;/span&gt;" style="whiteSpace=wrap;html=1;fontColor=#000000;strokeColor=#0e8088;fontStyle=0;fillColor=#b0e3e6;" parent="MVo3yfntmlOVNE5W4VQp-1" vertex="1"><mxGeometry x="645" y="16.63" width="100" height="70.75" as="geometry"/></mxCell><mxCell id="Z00eDHKt7jFzdqVRIVsM-3" style="edgeStyle=orthogonalEdgeStyle;rounded=0;orthogonalLoop=1;jettySize=auto;html=1;entryX=0;entryY=0.187;entryDx=0;entryDy=0;entryPerimeter=0;" parent="MVo3yfntmlOVNE5W4VQp-1" source="Z00eDHKt7jFzdqVRIVsM-2" target="MVo3yfntmlOVNE5W4VQp-6" edge="1"><mxGeometry relative="1" as="geometry"/></mxCell><mxCell id="Z00eDHKt7jFzdqVRIVsM-4" style="edgeStyle=orthogonalEdgeStyle;rounded=0;orthogonalLoop=1;jettySize=auto;html=1;entryX=-0.002;entryY=0.43;entryDx=0;entryDy=0;entryPerimeter=0;exitX=0.5;exitY=1;exitDx=0;exitDy=0;" parent="MVo3yfntmlOVNE5W4VQp-1" source="Z00eDHKt7jFzdqVRIVsM-2" target="MVo3yfntmlOVNE5W4VQp-6" edge="1"><mxGeometry relative="1" as="geometry"><Array as="points"><mxPoint x="-100" y="-20"/><mxPoint x="-26" y="-20"/><mxPoint x="-26" y="39"/></Array></mxGeometry></mxCell><mxCell id="Z00eDHKt7jFzdqVRIVsM-2" value="&lt;span&gt;&lt;span&gt;APIFacade&lt;/span&gt;&lt;br&gt;&lt;/span&gt;(w/ DDoS)&lt;br&gt;&lt;span&gt;[CloudFront]&lt;br&gt;&lt;/span&gt;" style="whiteSpace=wrap;html=1;fontColor=#000000;strokeColor=#0e8088;fontStyle=0;fillColor=#b0e3e6;" parent="MVo3yfntmlOVNE5W4VQp-1" vertex="1"><mxGeometry x="-165" y="-192" width="130" height="148" as="geometry"/></mxCell><mxCell id="MVo3yfntmlOVNE5W4VQp-46" value="" style="pointerEvents=1;dashed=0;html=1;strokeColor=none;fillColor=#4D4D4D;labelPosition=center;verticalLabelPosition=bottom;verticalAlign=top;outlineConnect=0;align=center;shape=mxgraph.office.devices.laptop;fontColor=#000000;gradientColor=none;" parent="MVo3yfntmlOVNE5W4VQp-1" vertex="1"><mxGeometry x="-495" y="162.38" width="35" height="25" as="geometry"/></mxCell><mxCell id="kikoet3qnLkE-YZudz2Q-3" style="edgeStyle=orthogonalEdgeStyle;rounded=0;orthogonalLoop=1;jettySize=auto;html=1;exitX=0.5;exitY=1;exitDx=0;exitDy=0;entryX=0;entryY=0.5;entryDx=0;entryDy=0;" parent="MVo3yfntmlOVNE5W4VQp-1" source="rsw8MhWaKnIKUzOS8xKP-28" target="MVo3yfntmlOVNE5W4VQp-19" edge="1"><mxGeometry relative="1" as="geometry"><mxPoint x="-366" y="433" as="targetPoint"/><Array as="points"><mxPoint x="-401" y="426"/><mxPoint x="-289" y="426"/><mxPoint x="-289" y="466"/></Array></mxGeometry></mxCell><mxCell id="Cktg8bSjTwQwkP6CPwNK-2" value="&lt;span&gt;Payload Signing Keys&lt;/span&gt;&lt;br&gt;[AWS ParameterStore]" style="whiteSpace=wrap;html=1;fontStyle=2;dashed=1;strokeColor=#67AB9F;strokeWidth=2;" parent="MVo3yfntmlOVNE5W4VQp-1" vertex="1"><mxGeometry x="359" y="274" width="160" height="29" as="geometry"/></mxCell><mxCell id="B5o_jY73ewd-hp5gTnEk-3" value="&lt;span&gt;AnalyticsExport&lt;/span&gt;&lt;br&gt;[Lambda]" style="whiteSpace=wrap;html=1;fillColor=#b0e3e6;strokeColor=#0e8088;fontStyle=0" parent="MVo3yfntmlOVNE5W4VQp-1" vertex="1"><mxGeometry x="355.25" y="-114" width="87.5" height="48.25" as="geometry"/></mxCell><mxCell id="5k1XnWDrUAU5vpph3zzq-1" value="Self Isolation&lt;br&gt;Payment (SIP) Gateway" style="whiteSpace=wrap;html=1;strokeColor=#0e8088;fontStyle=0;fillColor=#b0e3e6;" parent="MVo3yfntmlOVNE5W4VQp-1" vertex="1"><mxGeometry x="940.34" y="-213" width="119" height="44" as="geometry"/></mxCell><mxCell id="5k1XnWDrUAU5vpph3zzq-2" value="&lt;span&gt;IsolationPaymentAPI&lt;br&gt;&lt;/span&gt;(Gateway-facing)&lt;br&gt;[Lambda]" style="whiteSpace=wrap;html=1;fillColor=#b0e3e6;strokeColor=#0e8088;fontStyle=0" parent="MVo3yfntmlOVNE5W4VQp-1" vertex="1"><mxGeometry x="475.37" y="-166" width="93.25" height="48.25" as="geometry"/></mxCell><mxCell id="5k1XnWDrUAU5vpph3zzq-3" style="edgeStyle=orthogonalEdgeStyle;rounded=0;orthogonalLoop=1;jettySize=auto;html=1;" parent="MVo3yfntmlOVNE5W4VQp-1" source="5k1XnWDrUAU5vpph3zzq-1" target="5k1XnWDrUAU5vpph3zzq-2" edge="1"><mxGeometry relative="1" as="geometry"><mxPoint x="859" y="-205" as="targetPoint"/><mxPoint x="872" y="-186" as="sourcePoint"/><Array as="points"><mxPoint x="522" y="-181"/></Array></mxGeometry></mxCell><mxCell id="5k1XnWDrUAU5vpph3zzq-4" value="[Cross-account IAM, Lambda]" style="edgeLabel;html=1;align=center;verticalAlign=middle;resizable=0;points=[];" parent="5k1XnWDrUAU5vpph3zzq-3" vertex="1" connectable="0"><mxGeometry x="0.0868" relative="1" as="geometry"><mxPoint x="8.66" as="offset"/></mxGeometry></mxCell><mxCell id="5k1XnWDrUAU5vpph3zzq-7" style="edgeStyle=orthogonalEdgeStyle;rounded=0;orthogonalLoop=1;jettySize=auto;html=1;" parent="MVo3yfntmlOVNE5W4VQp-1" source="B5o_jY73ewd-hp5gTnEk-3" target="rsw8MhWaKnIKUzOS8xKP-12" edge="1"><mxGeometry relative="1" as="geometry"><mxPoint x="578.6300000000001" y="-125" as="targetPoint"/><mxPoint x="950.3400000000001" y="-125" as="sourcePoint"/><Array as="points"><mxPoint x="399" y="-199"/><mxPoint x="877" y="-199"/><mxPoint x="877" y="-249"/></Array></mxGeometry></mxCell><mxCell id="5k1XnWDrUAU5vpph3zzq-8" value="&lt;span style=&quot;font-family: &amp;#34;helvetica&amp;#34;&quot;&gt;[Mutual TLS, API Keys]&lt;/span&gt;" style="edgeLabel;html=1;align=center;verticalAlign=middle;resizable=0;points=[];" parent="5k1XnWDrUAU5vpph3zzq-7" vertex="1" connectable="0"><mxGeometry x="0.0868" relative="1" as="geometry"><mxPoint x="8.66" as="offset"/></mxGeometry></mxCell><mxCell id="Qx7BU48stONTaRzN2DXS-1" style="edgeStyle=orthogonalEdgeStyle;rounded=0;orthogonalLoop=1;jettySize=auto;html=1;" parent="MVo3yfntmlOVNE5W4VQp-1" source="Qx7BU48stONTaRzN2DXS-0" target="BgJXhwI06i4OPGI81IDf-9" edge="1"><mxGeometry relative="1" as="geometry"><Array as="points"><mxPoint x="904" y="-135"/><mxPoint x="904" y="-96"/></Array></mxGeometry></mxCell><mxCell id="Qx7BU48stONTaRzN2DXS-0" value="SIP Wales" style="whiteSpace=wrap;html=1;strokeColor=#0e8088;fontStyle=0;fillColor=#b0e3e6;" parent="MVo3yfntmlOVNE5W4VQp-1" vertex="1"><mxGeometry x="941" y="-157" width="119" height="44" as="geometry"/></mxCell><mxCell id="Qx7BU48stONTaRzN2DXS-2" value="IsolationPaymentAPI&lt;br&gt;[API GW]" style="whiteSpace=wrap;html=1;strokeColor=#0e8088;fillColor=#b0e3e6;" parent="MVo3yfntmlOVNE5W4VQp-1" vertex="1"><mxGeometry x="474.25" y="-88" width="96" height="40" as="geometry"/></mxCell></root></mxGraphModel></diagram></mxfile>